<svg id="Layer_1" data-name="Layer 1" xmlns="http://www.w3.org/2000/svg" width="140.2624" height="44" viewBox="0 0 140.2624 44"><defs><style>.cls-1{fill:#54b475;}.cls-2{fill:#26a361;}.cls-3{fill:#322152;}</style></defs><title>logo</title><path class="cls-1" d="M1164.0448,722.969c-6.5324-2.639-10.1324-5.7834-11.7682-9.183-2.6894-6.4433,3.7113-13.44,13.1438-13.96a12.8871,12.8871,0,0,0-11.9911.5665c3.0841-6.4143,8.5158-12.6568,11.0434-17.3739a22.0242,22.0242,0,0,0-2.7511,43.715A24.2862,24.2862,0,0,0,1164.0448,722.969Z" transform="translate(-1143.3967 -683.0181)"/><path class="cls-2" d="M1166.37,683.0183a71.8651,71.8651,0,0,0,4.3677,6.7019,9.4,9.4,0,0,0-8.6829,2.5185c5.4155-1.4147,11.7217.9855,15.1242,7.678s4.3119,14.0511-3.9975,19.7323c-.5641-6.8856-4.4691-12.42-10.6459-13.7044,6.8147,5.4805,6.8682,13.6641,3.9427,21.0735a22.0228,22.0228,0,0,0-.1083-44Z" transform="translate(-1143.3967 -683.0181)"/><path class="cls-3" d="M1200.9219,714.8232V693.0967h14.6728v4.1069h-9.7812v4.2637h8.6836v4.0132h-8.6836v5.2358h10.5019v4.1069Z" transform="translate(-1143.3967 -683.0181)"/><path class="cls-3" d="M1220.0156,706.5776a9.6962,9.6962,0,0,1,.58-3.37,7.8863,7.8863,0,0,1,4.3418-4.6245,8.7975,8.7975,0,0,1,3.5742-.6894,11.5454,11.5454,0,0,1,2.4141.2348,11.7658,11.7658,0,0,1,2.1318.6743l-.9717,3.7305a11.7747,11.7747,0,0,0-1.4423-.4385,7.5359,7.5359,0,0,0-1.7559-.1884,3.7,3.7,0,0,0-3.0879,1.2856,5.29,5.29,0,0,0-1.02,3.3857,5.48,5.48,0,0,0,.957,3.4488,4.0024,4.0024,0,0,0,3.3389,1.2226,11.4007,11.4007,0,0,0,1.8183-.1567,7.7143,7.7143,0,0,0,1.7871-.5015l.6582,3.8247a10.9353,10.9353,0,0,1-2.038.5957,13.46,13.46,0,0,1-2.6963.251,10.1523,10.1523,0,0,1-3.8877-.6743,7.321,7.321,0,0,1-2.6807-1.834,7.1529,7.1529,0,0,1-1.5361-2.7432A11.6384,11.6384,0,0,1,1220.0156,706.5776Z" transform="translate(-1143.3967 -683.0181)"/><path class="cls-3" d="M1252.6836,706.5464a10.7273,10.7273,0,0,1-.5635,3.5586,7.7342,7.7342,0,0,1-1.6308,2.7588,7.34,7.34,0,0,1-2.5547,1.7715,8.5329,8.5329,0,0,1-3.3389.6269,8.44,8.44,0,0,1-3.3076-.6269,7.3347,7.3347,0,0,1-2.5557-1.7715,8.0914,8.0914,0,0,1-1.6611-2.7588,10.2,10.2,0,0,1-.5957-3.5586,9.8323,9.8323,0,0,1,.6113-3.5425,8.03,8.03,0,0,1,1.6924-2.728,7.6126,7.6126,0,0,1,2.5713-1.7554,8.2748,8.2748,0,0,1,3.2451-.6269,8.3617,8.3617,0,0,1,3.2764.6269,7.4511,7.4511,0,0,1,2.5547,1.7554,7.9659,7.9659,0,0,1,1.6611,2.728A10.07,10.07,0,0,1,1252.6836,706.5464Zm-4.7647,0a5.8781,5.8781,0,0,0-.8623-3.4019,2.8208,2.8208,0,0,0-2.4609-1.2382,2.86,2.86,0,0,0-2.4775,1.2382,5.7961,5.7961,0,0,0-.878,3.4019,5.9465,5.9465,0,0,0,.878,3.4331,2.8379,2.8379,0,0,0,2.4775,1.2695,2.7994,2.7994,0,0,0,2.4609-1.2695A6.0313,6.0313,0,0,0,1247.9189,706.5464Z" transform="translate(-1143.3967 -683.0181)"/><path class="cls-3" d="M1264.44,715.1367a11.6877,11.6877,0,0,1-3.3076-.4389,4.8965,4.8965,0,0,1-2.0068-1.1441,3.7973,3.7973,0,0,1-1.003-1.7871,9.6413,9.6413,0,0,1-.2666-2.3672V691.2471l4.6719-.7525V708.459a6.1651,6.1651,0,0,0,.0938,1.1284,1.9454,1.9454,0,0,0,.36.8467,1.909,1.909,0,0,0,.7686.5644,4.1906,4.1906,0,0,0,1.3476.2818Z" transform="translate(-1143.3967 -683.0181)"/><path class="cls-3" d="M1283.6592,698.3325q-1.4151,4.766-2.9541,8.9351-1.5411,4.17-3.3633,8.0888a18.4091,18.4091,0,0,1-1.3193,2.398,7.3711,7.3711,0,0,1-1.4444,1.63,5.097,5.097,0,0,1-1.7744.9409,8.0367,8.0367,0,0,1-2.3066.2973,9.427,9.427,0,0,1-2.0254-.2036,9.0458,9.0458,0,0,1-1.5225-.4546l.8145-3.7309a8.0548,8.0548,0,0,0,1.2861.3452,7.2777,7.2777,0,0,0,1.1924.0938,2.6126,2.6126,0,0,0,1.9287-.6739,5.4359,5.4359,0,0,0,1.1455-1.8657q-1.6011-3.1341-3.2-7.0381a87.5945,87.5945,0,0,1-3.0107-8.7627h4.9531q.315,1.2225.74,2.6489t.8975,2.8843q.4716,1.4583.9609,2.8374.4878,1.38.9287,2.5083.4088-1.1286.8506-2.5083.4395-1.3791.8653-2.8374t.8183-2.8843q.3926-1.4259.708-2.6489Z" transform="translate(-1143.3967 -683.0181)"/></svg>